 <svg
                xmlns="http://www.w3.org/2000/svg"
                xmlns:xlink="http://www.w3.org/1999/xlink"
                version="1.1"
                x="0px"
                y="0px"
                viewBox="0 0 512 640"
                style="enable-background: new 0 0 512 512"
                xml:space="preserve"
                width="35px"
                cursor="pointer"
              >
                <style type="text/css">
                  .st0 {
                    display: none;
                  }
                  .st1 {
                    display: inline;
                  }
                  .st2 {
                    fill: #ffffff;
                    stroke: #000000;
                    stroke-width: 0.3;
                    stroke-miterlimit: 10;
                  }
                  .st3 {
                    fill: none;
                    stroke: #000000;
                    stroke-width: 0.1;
                    stroke-miterlimit: 10;
                  }
                </style>
                <g>
                  <g>
                    <path
                      d="M79.2,432.8C32,385.6,6,322.8,6,256S32,126.4,79.2,79.2S189.2,6,256,6s129.6,26,176.8,73.2    S506,189.2,506,256s-26,129.6-73.2,176.8S322.8,506,256,506S126.4,480,79.2,432.8z M16,256c0,132.3,107.7,240,240,240    s240-107.7,240-240S388.3,16,256,16S16,123.7,16,256z"
                    />
                    <g>
                      <g>
                        <polygon
                          points="332.8,317.9 394.7,256 332.8,194.1 340.8,186.2 410.5,256 340.8,325.8     "
                        />
                        <rect x="110.6" y="250.4" width="286.3" height="11.2" />
                      </g>
                    </g>
                  </g>
                </g>
              </svg>